G04 #@! TF.FileFunction,Copper,L1,Top,Signal*
%FSLAX46Y46*%
G04 Gerber Fmt 4.6, Leading zero omitted, Abs format (unit mm)*
G04 Created by KiCad (PCBNEW 0.201512211246+6391~39~ubuntu15.04.1-stable) date Do 31 Dez 2015 10:57:25 CET*
%MOMM*%
G01*
G04 APERTURE LIST*
%ADD10C,0.100000*%
%ADD11R,1.727200X1.727200*%
%ADD12O,1.727200X1.727200*%
%ADD13R,1.727200X2.032000*%
%ADD14O,1.727200X2.032000*%
%ADD15C,1.000000*%
%ADD16C,0.250000*%
%ADD17C,0.254000*%
G04 APERTURE END LIST*
D10*
D11*
X165100000Y-110490000D03*
D12*
X165100000Y-113030000D03*
X162560000Y-110490000D03*
X162560000Y-113030000D03*
X160020000Y-110490000D03*
X160020000Y-113030000D03*
X157480000Y-110490000D03*
X157480000Y-113030000D03*
X154940000Y-110490000D03*
X154940000Y-113030000D03*
X152400000Y-110490000D03*
X152400000Y-113030000D03*
X149860000Y-110490000D03*
X149860000Y-113030000D03*
X147320000Y-110490000D03*
X147320000Y-113030000D03*
X144780000Y-110490000D03*
X144780000Y-113030000D03*
X142240000Y-110490000D03*
X142240000Y-113030000D03*
D13*
X162560000Y-105410000D03*
D14*
X160020000Y-105410000D03*
X157480000Y-105410000D03*
X154940000Y-105410000D03*
X152400000Y-105410000D03*
X149860000Y-105410000D03*
X147320000Y-105410000D03*
X144780000Y-105410000D03*
X142240000Y-105410000D03*
D11*
X134620000Y-100330000D03*
D12*
X132080000Y-100330000D03*
X134620000Y-102870000D03*
X132080000Y-102870000D03*
X134620000Y-105410000D03*
X132080000Y-105410000D03*
X134620000Y-107950000D03*
X132080000Y-107950000D03*
X134620000Y-110490000D03*
X132080000Y-110490000D03*
X134620000Y-113030000D03*
X132080000Y-113030000D03*
D15*
X134620000Y-113030000D02*
X132080000Y-113030000D01*
X165100000Y-110490000D02*
X165100000Y-107950000D01*
X165100000Y-107950000D02*
X162560000Y-105410000D01*
X134620000Y-113030000D02*
X137922000Y-113030000D01*
X163322000Y-114808000D02*
X165100000Y-113030000D01*
X139700000Y-114808000D02*
X163322000Y-114808000D01*
X137922000Y-113030000D02*
X139700000Y-114808000D01*
X165100000Y-113030000D02*
X165100000Y-110490000D01*
D16*
X144780000Y-105410000D02*
X144780000Y-107950000D01*
X134620000Y-107950000D02*
X144780000Y-107950000D01*
X144780000Y-107950000D02*
X147320000Y-110490000D01*
X149860000Y-110490000D02*
X149860000Y-107950000D01*
X149860000Y-107950000D02*
X147320000Y-105410000D01*
X147320000Y-105410000D02*
X147320000Y-105156000D01*
X147320000Y-105156000D02*
X145796000Y-103632000D01*
X145796000Y-103632000D02*
X139192000Y-103632000D01*
X139192000Y-103632000D02*
X136144000Y-106680000D01*
X136144000Y-106680000D02*
X133350000Y-106680000D01*
X133350000Y-106680000D02*
X132080000Y-105410000D01*
X149860000Y-105410000D02*
X149860000Y-105664000D01*
X149860000Y-105664000D02*
X152400000Y-108204000D01*
X152400000Y-108204000D02*
X152400000Y-110490000D01*
X134620000Y-105410000D02*
X135890000Y-105410000D01*
X147320000Y-102870000D02*
X149860000Y-105410000D01*
X138430000Y-102870000D02*
X147320000Y-102870000D01*
X135890000Y-105410000D02*
X138430000Y-102870000D01*
X154940000Y-110490000D02*
X154940000Y-108204000D01*
X154940000Y-108204000D02*
X152400000Y-105664000D01*
X152400000Y-105664000D02*
X152400000Y-105410000D01*
X132080000Y-102870000D02*
X132334000Y-102870000D01*
X132334000Y-102870000D02*
X133604000Y-104140000D01*
X133604000Y-104140000D02*
X135636000Y-104140000D01*
X135636000Y-104140000D02*
X137668000Y-102108000D01*
X137668000Y-102108000D02*
X149098000Y-102108000D01*
X149098000Y-102108000D02*
X152400000Y-105410000D01*
X154940000Y-105410000D02*
X154940000Y-105664000D01*
X154940000Y-105664000D02*
X157480000Y-108204000D01*
X157480000Y-108204000D02*
X157480000Y-110490000D01*
X134620000Y-102870000D02*
X135382000Y-102870000D01*
X135382000Y-102870000D02*
X137160000Y-101092000D01*
X137160000Y-101092000D02*
X150622000Y-101092000D01*
X150622000Y-101092000D02*
X154940000Y-105410000D01*
X160020000Y-110490000D02*
X160020000Y-108204000D01*
X160020000Y-108204000D02*
X157480000Y-105664000D01*
X157480000Y-105664000D02*
X157480000Y-105410000D01*
X157480000Y-105410000D02*
X157480000Y-104648000D01*
X157480000Y-104648000D02*
X152908000Y-100076000D01*
X152908000Y-100076000D02*
X137160000Y-100076000D01*
X137160000Y-100076000D02*
X135636000Y-101600000D01*
X135636000Y-101600000D02*
X133350000Y-101600000D01*
X133350000Y-101600000D02*
X132080000Y-100330000D01*
X160020000Y-105410000D02*
X160020000Y-106172000D01*
X160020000Y-106172000D02*
X162560000Y-108712000D01*
X162560000Y-108712000D02*
X162560000Y-110490000D01*
X134620000Y-100330000D02*
X135890000Y-100330000D01*
X153670000Y-99060000D02*
X160020000Y-105410000D01*
X137160000Y-99060000D02*
X153670000Y-99060000D01*
X135890000Y-100330000D02*
X137160000Y-99060000D01*
D17*
G36*
X167438000Y-116130000D02*
X128980000Y-116130000D01*
X128980000Y-100300641D01*
X130581400Y-100300641D01*
X130581400Y-100359359D01*
X130695474Y-100932848D01*
X131020330Y-101419029D01*
X131291172Y-101600000D01*
X131020330Y-101780971D01*
X130695474Y-102267152D01*
X130581400Y-102840641D01*
X130581400Y-102899359D01*
X130695474Y-103472848D01*
X131020330Y-103959029D01*
X131291172Y-104140000D01*
X131020330Y-104320971D01*
X130695474Y-104807152D01*
X130581400Y-105380641D01*
X130581400Y-105439359D01*
X130695474Y-106012848D01*
X131020330Y-106499029D01*
X131291172Y-106680000D01*
X131020330Y-106860971D01*
X130695474Y-107347152D01*
X130581400Y-107920641D01*
X130581400Y-107979359D01*
X130695474Y-108552848D01*
X131020330Y-109039029D01*
X131291161Y-109219992D01*
X130873179Y-109601510D01*
X130625032Y-110130973D01*
X130745531Y-110363000D01*
X131953000Y-110363000D01*
X131953000Y-110343000D01*
X132207000Y-110343000D01*
X132207000Y-110363000D01*
X134493000Y-110363000D01*
X134493000Y-110343000D01*
X134747000Y-110343000D01*
X134747000Y-110363000D01*
X135954469Y-110363000D01*
X136074968Y-110130973D01*
X135826821Y-109601510D01*
X135408839Y-109219992D01*
X135679670Y-109039029D01*
X135899520Y-108710000D01*
X144465198Y-108710000D01*
X144747269Y-108992071D01*
X144177152Y-109105474D01*
X143690971Y-109430330D01*
X143510000Y-109701172D01*
X143329029Y-109430330D01*
X142842848Y-109105474D01*
X142269359Y-108991400D01*
X142210641Y-108991400D01*
X141637152Y-109105474D01*
X141150971Y-109430330D01*
X140826115Y-109916511D01*
X140712041Y-110490000D01*
X140826115Y-111063489D01*
X141150971Y-111549670D01*
X141474228Y-111765664D01*
X141351510Y-111823179D01*
X140957312Y-112255053D01*
X140785042Y-112670974D01*
X140906183Y-112903000D01*
X142113000Y-112903000D01*
X142113000Y-112883000D01*
X142367000Y-112883000D01*
X142367000Y-112903000D01*
X144653000Y-112903000D01*
X144653000Y-112883000D01*
X144907000Y-112883000D01*
X144907000Y-112903000D01*
X147193000Y-112903000D01*
X147193000Y-112883000D01*
X147447000Y-112883000D01*
X147447000Y-112903000D01*
X149733000Y-112903000D01*
X149733000Y-112883000D01*
X149987000Y-112883000D01*
X149987000Y-112903000D01*
X152273000Y-112903000D01*
X152273000Y-112883000D01*
X152527000Y-112883000D01*
X152527000Y-112903000D01*
X154813000Y-112903000D01*
X154813000Y-112883000D01*
X155067000Y-112883000D01*
X155067000Y-112903000D01*
X157353000Y-112903000D01*
X157353000Y-112883000D01*
X157607000Y-112883000D01*
X157607000Y-112903000D01*
X159893000Y-112903000D01*
X159893000Y-112883000D01*
X160147000Y-112883000D01*
X160147000Y-112903000D01*
X162433000Y-112903000D01*
X162433000Y-112883000D01*
X162687000Y-112883000D01*
X162687000Y-112903000D01*
X162707000Y-112903000D01*
X162707000Y-113157000D01*
X162687000Y-113157000D01*
X162687000Y-113177000D01*
X162433000Y-113177000D01*
X162433000Y-113157000D01*
X160147000Y-113157000D01*
X160147000Y-113177000D01*
X159893000Y-113177000D01*
X159893000Y-113157000D01*
X157607000Y-113157000D01*
X157607000Y-113177000D01*
X157353000Y-113177000D01*
X157353000Y-113157000D01*
X155067000Y-113157000D01*
X155067000Y-113177000D01*
X154813000Y-113177000D01*
X154813000Y-113157000D01*
X152527000Y-113157000D01*
X152527000Y-113177000D01*
X152273000Y-113177000D01*
X152273000Y-113157000D01*
X149987000Y-113157000D01*
X149987000Y-113177000D01*
X149733000Y-113177000D01*
X149733000Y-113157000D01*
X147447000Y-113157000D01*
X147447000Y-113177000D01*
X147193000Y-113177000D01*
X147193000Y-113157000D01*
X144907000Y-113157000D01*
X144907000Y-113177000D01*
X144653000Y-113177000D01*
X144653000Y-113157000D01*
X142367000Y-113157000D01*
X142367000Y-113177000D01*
X142113000Y-113177000D01*
X142113000Y-113157000D01*
X140906183Y-113157000D01*
X140785042Y-113389026D01*
X140902661Y-113673000D01*
X140170132Y-113673000D01*
X138724566Y-112227434D01*
X138356346Y-111981397D01*
X137922000Y-111895000D01*
X135610870Y-111895000D01*
X135408839Y-111760008D01*
X135826821Y-111378490D01*
X136074968Y-110849027D01*
X135954469Y-110617000D01*
X134747000Y-110617000D01*
X134747000Y-110637000D01*
X134493000Y-110637000D01*
X134493000Y-110617000D01*
X132207000Y-110617000D01*
X132207000Y-110637000D01*
X131953000Y-110637000D01*
X131953000Y-110617000D01*
X130745531Y-110617000D01*
X130625032Y-110849027D01*
X130873179Y-111378490D01*
X131291161Y-111760008D01*
X131020330Y-111940971D01*
X130695474Y-112427152D01*
X130581400Y-113000641D01*
X130581400Y-113059359D01*
X130695474Y-113632848D01*
X131020330Y-114119029D01*
X131506511Y-114443885D01*
X132080000Y-114557959D01*
X132653489Y-114443885D01*
X133070870Y-114165000D01*
X133629130Y-114165000D01*
X134046511Y-114443885D01*
X134620000Y-114557959D01*
X135193489Y-114443885D01*
X135610870Y-114165000D01*
X137451868Y-114165000D01*
X138897434Y-115610566D01*
X139265654Y-115856603D01*
X139700000Y-115943000D01*
X163322000Y-115943000D01*
X163756346Y-115856603D01*
X164124566Y-115610566D01*
X165225694Y-114509438D01*
X165702848Y-114414526D01*
X166189029Y-114089670D01*
X166513885Y-113603489D01*
X166627959Y-113030000D01*
X166513885Y-112456511D01*
X166235000Y-112039130D01*
X166235000Y-111933543D01*
X166415041Y-111817690D01*
X166560031Y-111605490D01*
X166611040Y-111353600D01*
X166611040Y-109626400D01*
X166566762Y-109391083D01*
X166427690Y-109174959D01*
X166235000Y-109043300D01*
X166235000Y-107950000D01*
X166148603Y-107515654D01*
X166059397Y-107382148D01*
X165902566Y-107147433D01*
X164071040Y-105315908D01*
X164071040Y-104394000D01*
X164026762Y-104158683D01*
X163887690Y-103942559D01*
X163675490Y-103797569D01*
X163423600Y-103746560D01*
X161696400Y-103746560D01*
X161461083Y-103790838D01*
X161244959Y-103929910D01*
X161099969Y-104142110D01*
X161091600Y-104183439D01*
X161079670Y-104165585D01*
X160593489Y-103840729D01*
X160020000Y-103726655D01*
X159512421Y-103827619D01*
X154207401Y-98522599D01*
X153960839Y-98357852D01*
X153670000Y-98300000D01*
X137160000Y-98300000D01*
X136869160Y-98357852D01*
X136622599Y-98522599D01*
X136019164Y-99126034D01*
X135947690Y-99014959D01*
X135735490Y-98869969D01*
X135483600Y-98818960D01*
X133756400Y-98818960D01*
X133521083Y-98863238D01*
X133304959Y-99002310D01*
X133159969Y-99214510D01*
X133151136Y-99258131D01*
X133139670Y-99240971D01*
X132653489Y-98916115D01*
X132080000Y-98802041D01*
X131506511Y-98916115D01*
X131020330Y-99240971D01*
X130695474Y-99727152D01*
X130581400Y-100300641D01*
X128980000Y-100300641D01*
X128980000Y-97230000D01*
X167438000Y-97230000D01*
X167438000Y-116130000D01*
X167438000Y-116130000D01*
G37*
X167438000Y-116130000D02*
X128980000Y-116130000D01*
X128980000Y-100300641D01*
X130581400Y-100300641D01*
X130581400Y-100359359D01*
X130695474Y-100932848D01*
X131020330Y-101419029D01*
X131291172Y-101600000D01*
X131020330Y-101780971D01*
X130695474Y-102267152D01*
X130581400Y-102840641D01*
X130581400Y-102899359D01*
X130695474Y-103472848D01*
X131020330Y-103959029D01*
X131291172Y-104140000D01*
X131020330Y-104320971D01*
X130695474Y-104807152D01*
X130581400Y-105380641D01*
X130581400Y-105439359D01*
X130695474Y-106012848D01*
X131020330Y-106499029D01*
X131291172Y-106680000D01*
X131020330Y-106860971D01*
X130695474Y-107347152D01*
X130581400Y-107920641D01*
X130581400Y-107979359D01*
X130695474Y-108552848D01*
X131020330Y-109039029D01*
X131291161Y-109219992D01*
X130873179Y-109601510D01*
X130625032Y-110130973D01*
X130745531Y-110363000D01*
X131953000Y-110363000D01*
X131953000Y-110343000D01*
X132207000Y-110343000D01*
X132207000Y-110363000D01*
X134493000Y-110363000D01*
X134493000Y-110343000D01*
X134747000Y-110343000D01*
X134747000Y-110363000D01*
X135954469Y-110363000D01*
X136074968Y-110130973D01*
X135826821Y-109601510D01*
X135408839Y-109219992D01*
X135679670Y-109039029D01*
X135899520Y-108710000D01*
X144465198Y-108710000D01*
X144747269Y-108992071D01*
X144177152Y-109105474D01*
X143690971Y-109430330D01*
X143510000Y-109701172D01*
X143329029Y-109430330D01*
X142842848Y-109105474D01*
X142269359Y-108991400D01*
X142210641Y-108991400D01*
X141637152Y-109105474D01*
X141150971Y-109430330D01*
X140826115Y-109916511D01*
X140712041Y-110490000D01*
X140826115Y-111063489D01*
X141150971Y-111549670D01*
X141474228Y-111765664D01*
X141351510Y-111823179D01*
X140957312Y-112255053D01*
X140785042Y-112670974D01*
X140906183Y-112903000D01*
X142113000Y-112903000D01*
X142113000Y-112883000D01*
X142367000Y-112883000D01*
X142367000Y-112903000D01*
X144653000Y-112903000D01*
X144653000Y-112883000D01*
X144907000Y-112883000D01*
X144907000Y-112903000D01*
X147193000Y-112903000D01*
X147193000Y-112883000D01*
X147447000Y-112883000D01*
X147447000Y-112903000D01*
X149733000Y-112903000D01*
X149733000Y-112883000D01*
X149987000Y-112883000D01*
X149987000Y-112903000D01*
X152273000Y-112903000D01*
X152273000Y-112883000D01*
X152527000Y-112883000D01*
X152527000Y-112903000D01*
X154813000Y-112903000D01*
X154813000Y-112883000D01*
X155067000Y-112883000D01*
X155067000Y-112903000D01*
X157353000Y-112903000D01*
X157353000Y-112883000D01*
X157607000Y-112883000D01*
X157607000Y-112903000D01*
X159893000Y-112903000D01*
X159893000Y-112883000D01*
X160147000Y-112883000D01*
X160147000Y-112903000D01*
X162433000Y-112903000D01*
X162433000Y-112883000D01*
X162687000Y-112883000D01*
X162687000Y-112903000D01*
X162707000Y-112903000D01*
X162707000Y-113157000D01*
X162687000Y-113157000D01*
X162687000Y-113177000D01*
X162433000Y-113177000D01*
X162433000Y-113157000D01*
X160147000Y-113157000D01*
X160147000Y-113177000D01*
X159893000Y-113177000D01*
X159893000Y-113157000D01*
X157607000Y-113157000D01*
X157607000Y-113177000D01*
X157353000Y-113177000D01*
X157353000Y-113157000D01*
X155067000Y-113157000D01*
X155067000Y-113177000D01*
X154813000Y-113177000D01*
X154813000Y-113157000D01*
X152527000Y-113157000D01*
X152527000Y-113177000D01*
X152273000Y-113177000D01*
X152273000Y-113157000D01*
X149987000Y-113157000D01*
X149987000Y-113177000D01*
X149733000Y-113177000D01*
X149733000Y-113157000D01*
X147447000Y-113157000D01*
X147447000Y-113177000D01*
X147193000Y-113177000D01*
X147193000Y-113157000D01*
X144907000Y-113157000D01*
X144907000Y-113177000D01*
X144653000Y-113177000D01*
X144653000Y-113157000D01*
X142367000Y-113157000D01*
X142367000Y-113177000D01*
X142113000Y-113177000D01*
X142113000Y-113157000D01*
X140906183Y-113157000D01*
X140785042Y-113389026D01*
X140902661Y-113673000D01*
X140170132Y-113673000D01*
X138724566Y-112227434D01*
X138356346Y-111981397D01*
X137922000Y-111895000D01*
X135610870Y-111895000D01*
X135408839Y-111760008D01*
X135826821Y-111378490D01*
X136074968Y-110849027D01*
X135954469Y-110617000D01*
X134747000Y-110617000D01*
X134747000Y-110637000D01*
X134493000Y-110637000D01*
X134493000Y-110617000D01*
X132207000Y-110617000D01*
X132207000Y-110637000D01*
X131953000Y-110637000D01*
X131953000Y-110617000D01*
X130745531Y-110617000D01*
X130625032Y-110849027D01*
X130873179Y-111378490D01*
X131291161Y-111760008D01*
X131020330Y-111940971D01*
X130695474Y-112427152D01*
X130581400Y-113000641D01*
X130581400Y-113059359D01*
X130695474Y-113632848D01*
X131020330Y-114119029D01*
X131506511Y-114443885D01*
X132080000Y-114557959D01*
X132653489Y-114443885D01*
X133070870Y-114165000D01*
X133629130Y-114165000D01*
X134046511Y-114443885D01*
X134620000Y-114557959D01*
X135193489Y-114443885D01*
X135610870Y-114165000D01*
X137451868Y-114165000D01*
X138897434Y-115610566D01*
X139265654Y-115856603D01*
X139700000Y-115943000D01*
X163322000Y-115943000D01*
X163756346Y-115856603D01*
X164124566Y-115610566D01*
X165225694Y-114509438D01*
X165702848Y-114414526D01*
X166189029Y-114089670D01*
X166513885Y-113603489D01*
X166627959Y-113030000D01*
X166513885Y-112456511D01*
X166235000Y-112039130D01*
X166235000Y-111933543D01*
X166415041Y-111817690D01*
X166560031Y-111605490D01*
X166611040Y-111353600D01*
X166611040Y-109626400D01*
X166566762Y-109391083D01*
X166427690Y-109174959D01*
X166235000Y-109043300D01*
X166235000Y-107950000D01*
X166148603Y-107515654D01*
X166059397Y-107382148D01*
X165902566Y-107147433D01*
X164071040Y-105315908D01*
X164071040Y-104394000D01*
X164026762Y-104158683D01*
X163887690Y-103942559D01*
X163675490Y-103797569D01*
X163423600Y-103746560D01*
X161696400Y-103746560D01*
X161461083Y-103790838D01*
X161244959Y-103929910D01*
X161099969Y-104142110D01*
X161091600Y-104183439D01*
X161079670Y-104165585D01*
X160593489Y-103840729D01*
X160020000Y-103726655D01*
X159512421Y-103827619D01*
X154207401Y-98522599D01*
X153960839Y-98357852D01*
X153670000Y-98300000D01*
X137160000Y-98300000D01*
X136869160Y-98357852D01*
X136622599Y-98522599D01*
X136019164Y-99126034D01*
X135947690Y-99014959D01*
X135735490Y-98869969D01*
X135483600Y-98818960D01*
X133756400Y-98818960D01*
X133521083Y-98863238D01*
X133304959Y-99002310D01*
X133159969Y-99214510D01*
X133151136Y-99258131D01*
X133139670Y-99240971D01*
X132653489Y-98916115D01*
X132080000Y-98802041D01*
X131506511Y-98916115D01*
X131020330Y-99240971D01*
X130695474Y-99727152D01*
X130581400Y-100300641D01*
X128980000Y-100300641D01*
X128980000Y-97230000D01*
X167438000Y-97230000D01*
X167438000Y-116130000D01*
G36*
X140948046Y-104495680D02*
X140754816Y-105048087D01*
X140899076Y-105283000D01*
X142113000Y-105283000D01*
X142113000Y-105263000D01*
X142367000Y-105263000D01*
X142367000Y-105283000D01*
X142387000Y-105283000D01*
X142387000Y-105537000D01*
X142367000Y-105537000D01*
X142367000Y-106896217D01*
X142599026Y-107017358D01*
X142614791Y-107014709D01*
X143142036Y-106760732D01*
X143513539Y-106344931D01*
X143720330Y-106654415D01*
X144020000Y-106854648D01*
X144020000Y-107190000D01*
X136708802Y-107190000D01*
X138126889Y-105771913D01*
X140754816Y-105771913D01*
X140948046Y-106324320D01*
X141337964Y-106760732D01*
X141865209Y-107014709D01*
X141880974Y-107017358D01*
X142113000Y-106896217D01*
X142113000Y-105537000D01*
X140899076Y-105537000D01*
X140754816Y-105771913D01*
X138126889Y-105771913D01*
X139506802Y-104392000D01*
X141040680Y-104392000D01*
X140948046Y-104495680D01*
X140948046Y-104495680D01*
G37*
X140948046Y-104495680D02*
X140754816Y-105048087D01*
X140899076Y-105283000D01*
X142113000Y-105283000D01*
X142113000Y-105263000D01*
X142367000Y-105263000D01*
X142367000Y-105283000D01*
X142387000Y-105283000D01*
X142387000Y-105537000D01*
X142367000Y-105537000D01*
X142367000Y-106896217D01*
X142599026Y-107017358D01*
X142614791Y-107014709D01*
X143142036Y-106760732D01*
X143513539Y-106344931D01*
X143720330Y-106654415D01*
X144020000Y-106854648D01*
X144020000Y-107190000D01*
X136708802Y-107190000D01*
X138126889Y-105771913D01*
X140754816Y-105771913D01*
X140948046Y-106324320D01*
X141337964Y-106760732D01*
X141865209Y-107014709D01*
X141880974Y-107017358D01*
X142113000Y-106896217D01*
X142113000Y-105537000D01*
X140899076Y-105537000D01*
X140754816Y-105771913D01*
X138126889Y-105771913D01*
X139506802Y-104392000D01*
X141040680Y-104392000D01*
X140948046Y-104495680D01*
M02*
