G04 #@! TF.FileFunction,Legend,Bot*
%FSLAX46Y46*%
G04 Gerber Fmt 4.6, Leading zero omitted, Abs format (unit mm)*
G04 Created by KiCad (PCBNEW 0.201512211246+6391~39~ubuntu15.04.1-stable) date Do 31 Dez 2015 10:57:25 CET*
%MOMM*%
G01*
G04 APERTURE LIST*
%ADD10C,0.100000*%
%ADD11C,0.300000*%
%ADD12C,0.150000*%
G04 APERTURE END LIST*
D10*
D11*
X166243143Y-97180000D02*
X166386000Y-97108571D01*
X166600286Y-97108571D01*
X166814571Y-97180000D01*
X166957429Y-97322857D01*
X167028857Y-97465714D01*
X167100286Y-97751429D01*
X167100286Y-97965714D01*
X167028857Y-98251429D01*
X166957429Y-98394286D01*
X166814571Y-98537143D01*
X166600286Y-98608571D01*
X166457429Y-98608571D01*
X166243143Y-98537143D01*
X166171714Y-98465714D01*
X166171714Y-97965714D01*
X166457429Y-97965714D01*
X164957429Y-98537143D02*
X165100286Y-98608571D01*
X165386000Y-98608571D01*
X165528857Y-98537143D01*
X165600286Y-98394286D01*
X165600286Y-97822857D01*
X165528857Y-97680000D01*
X165386000Y-97608571D01*
X165100286Y-97608571D01*
X164957429Y-97680000D01*
X164886000Y-97822857D01*
X164886000Y-97965714D01*
X165600286Y-98108571D01*
X164243143Y-97608571D02*
X164243143Y-98608571D01*
X164243143Y-97751429D02*
X164171715Y-97680000D01*
X164028857Y-97608571D01*
X163814572Y-97608571D01*
X163671715Y-97680000D01*
X163600286Y-97822857D01*
X163600286Y-98608571D01*
X162314572Y-98537143D02*
X162457429Y-98608571D01*
X162743143Y-98608571D01*
X162886000Y-98537143D01*
X162957429Y-98394286D01*
X162957429Y-97822857D01*
X162886000Y-97680000D01*
X162743143Y-97608571D01*
X162457429Y-97608571D01*
X162314572Y-97680000D01*
X162243143Y-97822857D01*
X162243143Y-97965714D01*
X162957429Y-98108571D01*
X161600286Y-98608571D02*
X161600286Y-97608571D01*
X161600286Y-97894286D02*
X161528858Y-97751429D01*
X161457429Y-97680000D01*
X161314572Y-97608571D01*
X161171715Y-97608571D01*
X160671715Y-98608571D02*
X160671715Y-97608571D01*
X160671715Y-97108571D02*
X160743144Y-97180000D01*
X160671715Y-97251429D01*
X160600287Y-97180000D01*
X160671715Y-97108571D01*
X160671715Y-97251429D01*
X159314572Y-98537143D02*
X159457429Y-98608571D01*
X159743143Y-98608571D01*
X159886001Y-98537143D01*
X159957429Y-98465714D01*
X160028858Y-98322857D01*
X160028858Y-97894286D01*
X159957429Y-97751429D01*
X159886001Y-97680000D01*
X159743143Y-97608571D01*
X159457429Y-97608571D01*
X159314572Y-97680000D01*
X156814572Y-98608571D02*
X157528858Y-98608571D01*
X157528858Y-97108571D01*
X156100286Y-98608571D02*
X156243144Y-98537143D01*
X156314572Y-98465714D01*
X156386001Y-98322857D01*
X156386001Y-97894286D01*
X156314572Y-97751429D01*
X156243144Y-97680000D01*
X156100286Y-97608571D01*
X155886001Y-97608571D01*
X155743144Y-97680000D01*
X155671715Y-97751429D01*
X155600286Y-97894286D01*
X155600286Y-98322857D01*
X155671715Y-98465714D01*
X155743144Y-98537143D01*
X155886001Y-98608571D01*
X156100286Y-98608571D01*
X154314572Y-97608571D02*
X154314572Y-98822857D01*
X154386001Y-98965714D01*
X154457429Y-99037143D01*
X154600286Y-99108571D01*
X154814572Y-99108571D01*
X154957429Y-99037143D01*
X154314572Y-98537143D02*
X154457429Y-98608571D01*
X154743143Y-98608571D01*
X154886001Y-98537143D01*
X154957429Y-98465714D01*
X155028858Y-98322857D01*
X155028858Y-97894286D01*
X154957429Y-97751429D01*
X154886001Y-97680000D01*
X154743143Y-97608571D01*
X154457429Y-97608571D01*
X154314572Y-97680000D01*
X153600286Y-98608571D02*
X153600286Y-97608571D01*
X153600286Y-97108571D02*
X153671715Y-97180000D01*
X153600286Y-97251429D01*
X153528858Y-97180000D01*
X153600286Y-97108571D01*
X153600286Y-97251429D01*
X152243143Y-98537143D02*
X152386000Y-98608571D01*
X152671714Y-98608571D01*
X152814572Y-98537143D01*
X152886000Y-98465714D01*
X152957429Y-98322857D01*
X152957429Y-97894286D01*
X152886000Y-97751429D01*
X152814572Y-97680000D01*
X152671714Y-97608571D01*
X152386000Y-97608571D01*
X152243143Y-97680000D01*
X167028857Y-101008571D02*
X167028857Y-99508571D01*
X166314571Y-100008571D02*
X166314571Y-101008571D01*
X166314571Y-100151429D02*
X166243143Y-100080000D01*
X166100285Y-100008571D01*
X165886000Y-100008571D01*
X165743143Y-100080000D01*
X165671714Y-100222857D01*
X165671714Y-101008571D01*
X165171714Y-100008571D02*
X164600285Y-100008571D01*
X164957428Y-99508571D02*
X164957428Y-100794286D01*
X164886000Y-100937143D01*
X164743142Y-101008571D01*
X164600285Y-101008571D01*
X163528857Y-100937143D02*
X163671714Y-101008571D01*
X163957428Y-101008571D01*
X164100285Y-100937143D01*
X164171714Y-100794286D01*
X164171714Y-100222857D01*
X164100285Y-100080000D01*
X163957428Y-100008571D01*
X163671714Y-100008571D01*
X163528857Y-100080000D01*
X163457428Y-100222857D01*
X163457428Y-100365714D01*
X164171714Y-100508571D01*
X162814571Y-101008571D02*
X162814571Y-100008571D01*
X162814571Y-100294286D02*
X162743143Y-100151429D01*
X162671714Y-100080000D01*
X162528857Y-100008571D01*
X162386000Y-100008571D01*
X162100286Y-100008571D02*
X161528857Y-100008571D01*
X161886000Y-101008571D02*
X161886000Y-99722857D01*
X161814572Y-99580000D01*
X161671714Y-99508571D01*
X161528857Y-99508571D01*
X160386000Y-101008571D02*
X160386000Y-100222857D01*
X160457429Y-100080000D01*
X160600286Y-100008571D01*
X160886000Y-100008571D01*
X161028857Y-100080000D01*
X160386000Y-100937143D02*
X160528857Y-101008571D01*
X160886000Y-101008571D01*
X161028857Y-100937143D01*
X161100286Y-100794286D01*
X161100286Y-100651429D01*
X161028857Y-100508571D01*
X160886000Y-100437143D01*
X160528857Y-100437143D01*
X160386000Y-100365714D01*
X159028857Y-100937143D02*
X159171714Y-101008571D01*
X159457428Y-101008571D01*
X159600286Y-100937143D01*
X159671714Y-100865714D01*
X159743143Y-100722857D01*
X159743143Y-100294286D01*
X159671714Y-100151429D01*
X159600286Y-100080000D01*
X159457428Y-100008571D01*
X159171714Y-100008571D01*
X159028857Y-100080000D01*
X157814572Y-100937143D02*
X157957429Y-101008571D01*
X158243143Y-101008571D01*
X158386000Y-100937143D01*
X158457429Y-100794286D01*
X158457429Y-100222857D01*
X158386000Y-100080000D01*
X158243143Y-100008571D01*
X157957429Y-100008571D01*
X157814572Y-100080000D01*
X157743143Y-100222857D01*
X157743143Y-100365714D01*
X158457429Y-100508571D01*
X155957429Y-101008571D02*
X155957429Y-99508571D01*
X155386001Y-99508571D01*
X155243143Y-99580000D01*
X155171715Y-99651429D01*
X155100286Y-99794286D01*
X155100286Y-100008571D01*
X155171715Y-100151429D01*
X155243143Y-100222857D01*
X155386001Y-100294286D01*
X155957429Y-100294286D01*
X154457429Y-101008571D02*
X154457429Y-100008571D01*
X154457429Y-100294286D02*
X154386001Y-100151429D01*
X154314572Y-100080000D01*
X154171715Y-100008571D01*
X154028858Y-100008571D01*
X153314572Y-101008571D02*
X153457430Y-100937143D01*
X153528858Y-100865714D01*
X153600287Y-100722857D01*
X153600287Y-100294286D01*
X153528858Y-100151429D01*
X153457430Y-100080000D01*
X153314572Y-100008571D01*
X153100287Y-100008571D01*
X152957430Y-100080000D01*
X152886001Y-100151429D01*
X152814572Y-100294286D01*
X152814572Y-100722857D01*
X152886001Y-100865714D01*
X152957430Y-100937143D01*
X153100287Y-101008571D01*
X153314572Y-101008571D01*
X152171715Y-100008571D02*
X152171715Y-101294286D01*
X152243144Y-101437143D01*
X152386001Y-101508571D01*
X152457429Y-101508571D01*
X152171715Y-99508571D02*
X152243144Y-99580000D01*
X152171715Y-99651429D01*
X152100287Y-99580000D01*
X152171715Y-99508571D01*
X152171715Y-99651429D01*
X150886001Y-100937143D02*
X151028858Y-101008571D01*
X151314572Y-101008571D01*
X151457429Y-100937143D01*
X151528858Y-100794286D01*
X151528858Y-100222857D01*
X151457429Y-100080000D01*
X151314572Y-100008571D01*
X151028858Y-100008571D01*
X150886001Y-100080000D01*
X150814572Y-100222857D01*
X150814572Y-100365714D01*
X151528858Y-100508571D01*
X149528858Y-100937143D02*
X149671715Y-101008571D01*
X149957429Y-101008571D01*
X150100287Y-100937143D01*
X150171715Y-100865714D01*
X150243144Y-100722857D01*
X150243144Y-100294286D01*
X150171715Y-100151429D01*
X150100287Y-100080000D01*
X149957429Y-100008571D01*
X149671715Y-100008571D01*
X149528858Y-100080000D01*
X149100287Y-100008571D02*
X148528858Y-100008571D01*
X148886001Y-99508571D02*
X148886001Y-100794286D01*
X148814573Y-100937143D01*
X148671715Y-101008571D01*
X148528858Y-101008571D01*
X167028857Y-103408571D02*
X167028857Y-101908571D01*
X166386000Y-103408571D02*
X166386000Y-102622857D01*
X166457429Y-102480000D01*
X166600286Y-102408571D01*
X166814571Y-102408571D01*
X166957429Y-102480000D01*
X167028857Y-102551429D01*
X165886000Y-102408571D02*
X165314571Y-102408571D01*
X165671714Y-101908571D02*
X165671714Y-103194286D01*
X165600286Y-103337143D01*
X165457428Y-103408571D01*
X165314571Y-103408571D01*
X165028857Y-102408571D02*
X164457428Y-102408571D01*
X164814571Y-101908571D02*
X164814571Y-103194286D01*
X164743143Y-103337143D01*
X164600285Y-103408571D01*
X164457428Y-103408571D01*
X163957428Y-102408571D02*
X163957428Y-103908571D01*
X163957428Y-102480000D02*
X163814571Y-102408571D01*
X163528857Y-102408571D01*
X163386000Y-102480000D01*
X163314571Y-102551429D01*
X163243142Y-102694286D01*
X163243142Y-103122857D01*
X163314571Y-103265714D01*
X163386000Y-103337143D01*
X163528857Y-103408571D01*
X163814571Y-103408571D01*
X163957428Y-103337143D01*
X162600285Y-103265714D02*
X162528857Y-103337143D01*
X162600285Y-103408571D01*
X162671714Y-103337143D01*
X162600285Y-103265714D01*
X162600285Y-103408571D01*
X162600285Y-102480000D02*
X162528857Y-102551429D01*
X162600285Y-102622857D01*
X162671714Y-102551429D01*
X162600285Y-102480000D01*
X162600285Y-102622857D01*
X160814571Y-101837143D02*
X162100285Y-103765714D01*
X159243142Y-101837143D02*
X160528856Y-103765714D01*
X158100284Y-102408571D02*
X158100284Y-103622857D01*
X158171713Y-103765714D01*
X158243141Y-103837143D01*
X158385998Y-103908571D01*
X158600284Y-103908571D01*
X158743141Y-103837143D01*
X158100284Y-103337143D02*
X158243141Y-103408571D01*
X158528855Y-103408571D01*
X158671713Y-103337143D01*
X158743141Y-103265714D01*
X158814570Y-103122857D01*
X158814570Y-102694286D01*
X158743141Y-102551429D01*
X158671713Y-102480000D01*
X158528855Y-102408571D01*
X158243141Y-102408571D01*
X158100284Y-102480000D01*
X157171712Y-103408571D02*
X157314570Y-103337143D01*
X157385998Y-103194286D01*
X157385998Y-101908571D01*
X156600284Y-103408571D02*
X156600284Y-102408571D01*
X156600284Y-101908571D02*
X156671713Y-101980000D01*
X156600284Y-102051429D01*
X156528856Y-101980000D01*
X156600284Y-101908571D01*
X156600284Y-102051429D01*
X155885998Y-102408571D02*
X155885998Y-103908571D01*
X155885998Y-102480000D02*
X155743141Y-102408571D01*
X155457427Y-102408571D01*
X155314570Y-102480000D01*
X155243141Y-102551429D01*
X155171712Y-102694286D01*
X155171712Y-103122857D01*
X155243141Y-103265714D01*
X155314570Y-103337143D01*
X155457427Y-103408571D01*
X155743141Y-103408571D01*
X155885998Y-103337143D01*
X154528855Y-103265714D02*
X154457427Y-103337143D01*
X154528855Y-103408571D01*
X154600284Y-103337143D01*
X154528855Y-103265714D01*
X154528855Y-103408571D01*
X153814569Y-103408571D02*
X153814569Y-102408571D01*
X153814569Y-101908571D02*
X153885998Y-101980000D01*
X153814569Y-102051429D01*
X153743141Y-101980000D01*
X153814569Y-101908571D01*
X153814569Y-102051429D01*
X152885997Y-103408571D02*
X153028855Y-103337143D01*
X153100283Y-103265714D01*
X153171712Y-103122857D01*
X153171712Y-102694286D01*
X153100283Y-102551429D01*
X153028855Y-102480000D01*
X152885997Y-102408571D01*
X152671712Y-102408571D01*
X152528855Y-102480000D01*
X152457426Y-102551429D01*
X152385997Y-102694286D01*
X152385997Y-103122857D01*
X152457426Y-103265714D01*
X152528855Y-103337143D01*
X152671712Y-103408571D01*
X152885997Y-103408571D01*
D12*
X140970000Y-114300000D02*
X166370000Y-114300000D01*
X163830000Y-109220000D02*
X140970000Y-109220000D01*
X140970000Y-114300000D02*
X140970000Y-109220000D01*
X166370000Y-114300000D02*
X166370000Y-111760000D01*
X165100000Y-108940000D02*
X166650000Y-108940000D01*
X166370000Y-111760000D02*
X163830000Y-111760000D01*
X163830000Y-111760000D02*
X163830000Y-109220000D01*
X166650000Y-108940000D02*
X166650000Y-110490000D01*
X138031220Y-102257860D02*
X137670540Y-103728520D01*
X137670540Y-103728520D02*
X137391140Y-102666800D01*
X137391140Y-102666800D02*
X137081260Y-103738680D01*
X137081260Y-103738680D02*
X136740900Y-102288340D01*
X139451080Y-102948740D02*
X138661140Y-102938580D01*
X138661140Y-102938580D02*
X138650980Y-102948740D01*
X138650980Y-102948740D02*
X138650980Y-102938580D01*
X138610340Y-102227380D02*
X138610340Y-103769160D01*
X139499340Y-102217220D02*
X139499340Y-103786940D01*
X139499340Y-103786940D02*
X139489180Y-103776780D01*
X140050520Y-102318820D02*
X140401040Y-102237540D01*
X140401040Y-102237540D02*
X140721080Y-102227380D01*
X140721080Y-102227380D02*
X140959840Y-102428040D01*
X140959840Y-102428040D02*
X140990320Y-102697280D01*
X140990320Y-102697280D02*
X140749020Y-102938580D01*
X140749020Y-102938580D02*
X140360400Y-103068120D01*
X140360400Y-103068120D02*
X140180060Y-103228140D01*
X140180060Y-103228140D02*
X140139420Y-103527860D01*
X140139420Y-103527860D02*
X140370560Y-103748840D01*
X140370560Y-103748840D02*
X140690600Y-103776780D01*
X140690600Y-103776780D02*
X141041120Y-103667560D01*
X142079980Y-102217220D02*
X142328900Y-102237540D01*
X142328900Y-102237540D02*
X142570200Y-102478840D01*
X142570200Y-102478840D02*
X142659100Y-102969060D01*
X142659100Y-102969060D02*
X142631160Y-103317040D01*
X142631160Y-103317040D02*
X142430500Y-103637080D01*
X142430500Y-103637080D02*
X142179040Y-103759000D01*
X142179040Y-103759000D02*
X141869160Y-103687880D01*
X141869160Y-103687880D02*
X141650720Y-103507540D01*
X141650720Y-103507540D02*
X141579600Y-103047800D01*
X141579600Y-103047800D02*
X141630400Y-102638860D01*
X141630400Y-102638860D02*
X141739620Y-102356920D01*
X141739620Y-102356920D02*
X142100300Y-102227380D01*
X141480540Y-100497640D02*
X141739620Y-101058980D01*
X141739620Y-101058980D02*
X141201140Y-101577140D01*
X141201140Y-101577140D02*
X140680440Y-101307900D01*
X140680440Y-101307900D02*
X140401040Y-101467920D01*
X138960860Y-101447600D02*
X138630660Y-101257100D01*
X138630660Y-101257100D02*
X138191240Y-101587300D01*
X138191240Y-101587300D02*
X137718800Y-101097080D01*
X137718800Y-101097080D02*
X138000740Y-100617020D01*
X138000740Y-100617020D02*
X137810240Y-100147120D01*
X137810240Y-100147120D02*
X137200640Y-99959160D01*
X137200640Y-99959160D02*
X137200640Y-99278440D01*
X137200640Y-99278440D02*
X137759440Y-99138740D01*
X137759440Y-99138740D02*
X137960100Y-98567240D01*
X137960100Y-98567240D02*
X137690860Y-98097340D01*
X137690860Y-98097340D02*
X138160760Y-97586800D01*
X138160760Y-97586800D02*
X138678920Y-97848420D01*
X138678920Y-97848420D02*
X139148820Y-97647760D01*
X139148820Y-97647760D02*
X139319000Y-97106740D01*
X139319000Y-97106740D02*
X140009880Y-97088960D01*
X140009880Y-97088960D02*
X140220700Y-97637600D01*
X140220700Y-97637600D02*
X140639800Y-97807780D01*
X140639800Y-97807780D02*
X141190980Y-97538540D01*
X141190980Y-97538540D02*
X141709140Y-98066860D01*
X141709140Y-98066860D02*
X141460220Y-98607880D01*
X141460220Y-98607880D02*
X141630400Y-99087940D01*
X141630400Y-99087940D02*
X142179040Y-99187000D01*
X142179040Y-99187000D02*
X142189200Y-99888040D01*
X142189200Y-99888040D02*
X141630400Y-100088700D01*
X141630400Y-100088700D02*
X141490700Y-100487480D01*
X139349480Y-100467160D02*
X139049760Y-100317300D01*
X139049760Y-100317300D02*
X138849100Y-100119180D01*
X138849100Y-100119180D02*
X138699240Y-99717860D01*
X138699240Y-99717860D02*
X138699240Y-99319080D01*
X138699240Y-99319080D02*
X138849100Y-98968560D01*
X138849100Y-98968560D02*
X139301220Y-98618040D01*
X139301220Y-98618040D02*
X139750800Y-98567240D01*
X139750800Y-98567240D02*
X140149580Y-98668840D01*
X140149580Y-98668840D02*
X140550900Y-99016820D01*
X140550900Y-99016820D02*
X140700760Y-99468940D01*
X140700760Y-99468940D02*
X140649960Y-99966780D01*
X140649960Y-99966780D02*
X140401040Y-100269040D01*
X140401040Y-100269040D02*
X140050520Y-100467160D01*
X140050520Y-100467160D02*
X140401040Y-101467920D01*
X139349480Y-100467160D02*
X138950700Y-101467920D01*
M02*
