G04 #@! TF.FileFunction,Soldermask,Top*
%FSLAX46Y46*%
G04 Gerber Fmt 4.6, Leading zero omitted, Abs format (unit mm)*
G04 Created by KiCad (PCBNEW 0.201512211246+6391~39~ubuntu15.04.1-stable) date Do 31 Dez 2015 10:57:25 CET*
%MOMM*%
G01*
G04 APERTURE LIST*
%ADD10C,0.100000*%
%ADD11R,2.127200X2.127200*%
%ADD12O,2.127200X2.127200*%
%ADD13R,2.127200X2.432000*%
%ADD14O,2.127200X2.432000*%
G04 APERTURE END LIST*
D10*
D11*
X165100000Y-110490000D03*
D12*
X165100000Y-113030000D03*
X162560000Y-110490000D03*
X162560000Y-113030000D03*
X160020000Y-110490000D03*
X160020000Y-113030000D03*
X157480000Y-110490000D03*
X157480000Y-113030000D03*
X154940000Y-110490000D03*
X154940000Y-113030000D03*
X152400000Y-110490000D03*
X152400000Y-113030000D03*
X149860000Y-110490000D03*
X149860000Y-113030000D03*
X147320000Y-110490000D03*
X147320000Y-113030000D03*
X144780000Y-110490000D03*
X144780000Y-113030000D03*
X142240000Y-110490000D03*
X142240000Y-113030000D03*
D13*
X162560000Y-105410000D03*
D14*
X160020000Y-105410000D03*
X157480000Y-105410000D03*
X154940000Y-105410000D03*
X152400000Y-105410000D03*
X149860000Y-105410000D03*
X147320000Y-105410000D03*
X144780000Y-105410000D03*
X142240000Y-105410000D03*
D11*
X134620000Y-100330000D03*
D12*
X132080000Y-100330000D03*
X134620000Y-102870000D03*
X132080000Y-102870000D03*
X134620000Y-105410000D03*
X132080000Y-105410000D03*
X134620000Y-107950000D03*
X132080000Y-107950000D03*
X134620000Y-110490000D03*
X132080000Y-110490000D03*
X134620000Y-113030000D03*
X132080000Y-113030000D03*
M02*
