M48
;DRILL file {KiCad 0.201512211246+6391~39~ubuntu15.04.1-stable} date Do 31 Dez 2015 10:57:27 CET
;FORMAT={-:-/ absolute / inch / decimal}
FMAT,2
INCH,TZ
T1C0.040
%
G90
G05
M72
T1
X5.2Y-3.95
X5.2Y-4.05
X5.2Y-4.15
X5.2Y-4.25
X5.2Y-4.35
X5.2Y-4.45
X5.3Y-3.95
X5.3Y-4.05
X5.3Y-4.15
X5.3Y-4.25
X5.3Y-4.35
X5.3Y-4.45
X5.6Y-4.15
X5.6Y-4.35
X5.6Y-4.45
X5.7Y-4.15
X5.7Y-4.35
X5.7Y-4.45
X5.8Y-4.15
X5.8Y-4.35
X5.8Y-4.45
X5.9Y-4.15
X5.9Y-4.35
X5.9Y-4.45
X6.Y-4.15
X6.Y-4.35
X6.Y-4.45
X6.1Y-4.15
X6.1Y-4.35
X6.1Y-4.45
X6.2Y-4.15
X6.2Y-4.35
X6.2Y-4.45
X6.3Y-4.15
X6.3Y-4.35
X6.3Y-4.45
X6.4Y-4.15
X6.4Y-4.35
X6.4Y-4.45
X6.5Y-4.35
X6.5Y-4.45
T0
M30
